<svg width="100" height="100" viewBox="0 0 100 100" fill="none" xmlns="http://www.w3.org/2000/svg">
<rect x="0.919922" y="0.768921" width="98.4363" height="98.4363" rx="17.3175" fill="white"/>
<path d="M65.3811 37.3136H60.2825C59.7703 37.3136 59.2817 37.098 58.9363 36.7197L56.613 34.1749C56.2677 33.7965 55.779 33.581 55.2668 33.581H46.7215C45.7147 33.581 44.8986 34.3971 44.8986 35.4039V35.4907C44.8986 36.4974 45.7147 37.3136 46.7215 37.3136H53.6282C54.1404 37.3136 54.6291 37.5291 54.9744 37.9075L57.2977 40.4523C57.6431 40.8306 58.1317 41.0462 58.6439 41.0462H65.3811V63.4417H35.5884V48.468C35.5884 47.4612 34.7722 46.6451 33.7655 46.6451H33.6872C32.6804 46.6451 31.8643 47.4612 31.8643 48.468V63.4417C31.8643 65.4947 33.5401 67.1743 35.5884 67.1743H65.3811C67.4294 67.1743 69.1052 65.4947 69.1052 63.4417V41.0462C69.1052 38.9933 67.4294 37.3136 65.3811 37.3136ZM41.1745 52.244C41.1745 57.3949 45.3455 61.5754 50.4847 61.5754C55.624 61.5754 59.795 57.3949 59.795 52.244C59.795 47.093 55.624 42.9125 50.4847 42.9125C45.3455 42.9125 41.1745 47.093 41.1745 52.244ZM50.4847 46.6451C53.5571 46.6451 56.0709 49.1646 56.0709 52.244C56.0709 55.3233 53.5571 57.8428 50.4847 57.8428C47.4124 57.8428 44.8986 55.3233 44.8986 52.244C44.8986 49.1646 47.4124 46.6451 50.4847 46.6451Z" fill="#333333" fill-opacity="0.5"/>
<path d="M39.4705 37.4438H35.7072V41.2198C35.7072 42.2265 34.8911 43.0427 33.8843 43.0427H33.806C32.7993 43.0427 31.9831 42.2265 31.9831 41.2198V37.4438H28.2199C27.2131 37.4438 26.397 36.6276 26.397 35.6209V35.5341C26.397 34.5273 27.2131 33.7112 28.2199 33.7112H31.9831V29.9352C31.9831 28.9284 32.7993 28.1123 33.806 28.1123H33.8843C34.8911 28.1123 35.7072 28.9284 35.7072 29.9352V33.7112H39.4705C40.4772 33.7112 41.2934 34.5273 41.2934 35.5341V35.6209C41.2934 36.6276 40.4772 37.4438 39.4705 37.4438Z" fill="#333333" fill-opacity="0.5"/>
</svg>
