<svg width="390" height="844" viewBox="0 0 390 844" fill="none" xmlns="http://www.w3.org/2000/svg">
<g clip-path="url(#clip0_253_494)">
<rect width="390" height="844" fill="#F4F4F4"/>
<g clip-path="url(#clip1_253_494)">
<path d="M651.685 42.215V805.208C651.685 823.505 641.255 839.314 626.121 846.979C619.829 850.213 612.744 851.984 605.221 851.984H383.358C383.269 852.121 383.18 852.162 383.091 852.203L381.812 851.984H22.7666C-2.88641 851.984 -23.6906 831.075 -23.6906 805.208V42.215C-23.6906 39.7808 -23.5127 37.3398 -23.1161 34.9945C-22.4527 30.5637 -21.1807 26.3107 -19.423 22.3722V22.3312C-18.0621 19.3636 -16.4344 16.5739 -14.581 13.955C-13.9655 13.0661 -13.3022 12.2251 -12.6046 11.3841C-11.6813 10.1465 -10.6213 8.99091 -9.47918 7.93107C-8.95258 7.39774 -8.3781 6.82337 -7.81047 6.29004C-6.09389 4.73789 -4.24737 3.28147 -2.31194 1.94813C-1.03305 1.05924 0.28687 0.266068 1.68886 -0.486073C3.71319 -1.6348 5.86747 -2.61258 8.11065 -3.41259C13.3083 -5.31345 18.9367 -6.38013 24.7909 -6.38013H603.203C610.152 -6.38013 616.751 -4.91687 622.735 -2.25702C623.57 -1.86044 624.404 -1.45702 625.245 -1.01941C629.027 0.888294 632.549 3.3225 635.675 6.15328C636.29 6.72765 636.906 7.30201 637.48 7.88321C638.711 9.03194 639.812 10.2764 640.825 11.6029C641.488 12.4439 642.145 13.285 642.719 14.126C643.909 15.808 645.003 17.579 646.015 19.4388C646.987 21.2987 647.862 23.2474 648.614 25.1961C649.756 28.1637 650.55 31.2611 651.076 34.5022C651.206 35.3432 651.343 36.2321 651.425 37.1142C651.603 38.8031 651.685 40.4851 651.685 42.215Z" fill="#E4E4E4"/>
<path d="M80.6786 73.7434L2.98797 86.3042C0.416513 86.7213 -2.01132 84.9572 -2.42166 82.3657L-3.86468 73.3126C-4.27502 70.7212 -2.52424 68.2801 0.0472093 67.863L77.7379 55.3023C80.3093 54.8852 82.7372 56.6493 83.1475 59.2408L84.5905 68.2938C85.0077 70.8921 83.2501 73.3263 80.6786 73.7434Z" fill="#E4E4E4"/>
<path d="M92.0314 39.7261L14.3407 52.2868C11.7693 52.7039 9.34146 50.9398 8.93112 48.3484L7.4881 39.2953C7.07776 36.7038 8.82854 34.2628 11.4 33.8457L89.0907 21.2849C91.6621 20.8678 94.09 22.632 94.5003 25.2234L95.9433 34.2765C96.3605 36.8748 94.6097 39.309 92.0314 39.7261Z" fill="#E4E4E4"/>
<path d="M353.123 691.963L298.76 686.882C296.537 686.677 294.903 684.694 295.108 682.452L296.072 671.963C296.277 669.727 298.247 668.079 300.469 668.284L354.832 673.364C357.055 673.569 358.69 675.552 358.484 677.795L357.52 688.284C357.315 690.527 355.345 692.175 353.123 691.963Z" fill="#E4E4E4"/>
<path d="M139.131 680.257L87.8255 661.467C85.7259 660.701 84.6453 658.362 85.4113 656.25L88.9881 646.349C89.754 644.236 92.0725 643.149 94.172 643.914L145.478 662.704C147.578 663.47 148.658 665.809 147.892 667.921L144.315 677.822C143.549 679.935 141.231 681.022 139.131 680.257Z" fill="#E4E4E4"/>
<path d="M379.077 442.423L341.353 458.546C339.554 459.319 337.475 458.471 336.709 456.659L332.23 446.033C331.464 444.221 332.305 442.129 334.103 441.356L371.827 425.233C373.626 424.46 375.705 425.308 376.471 427.12L380.95 437.746C381.716 439.565 380.875 441.657 379.077 442.423Z" fill="#E4E4E4"/>
<path d="M288.324 482.218L272.314 444.235C271.548 442.423 272.389 440.33 274.187 439.558L284.74 435.045C286.539 434.272 288.618 435.12 289.384 436.932L305.394 474.915C306.16 476.727 305.318 478.819 303.52 479.592L292.967 484.105C291.169 484.878 289.09 484.03 288.324 482.218Z" fill="#E4E4E4"/>
<path d="M34.2627 515.756L10.5998 482.067C9.4714 480.46 9.84754 478.231 11.4479 477.096L20.8104 470.43C22.4107 469.295 24.6197 469.678 25.7481 471.284L49.411 504.973C50.5394 506.58 50.1633 508.809 48.5629 509.944L39.2004 516.611C37.6001 517.746 35.3911 517.37 34.2627 515.756Z" fill="#E4E4E4"/>
<path d="M311.699 165.416L276.212 144.787C274.516 143.802 273.934 141.621 274.912 139.911L280.643 129.915C281.621 128.212 283.789 127.624 285.485 128.609L320.973 149.238C322.669 150.223 323.25 152.404 322.272 154.113L316.541 164.11C315.563 165.819 313.395 166.4 311.699 165.416Z" fill="#E4E4E4"/>
<path d="M260.899 140.479L225.412 119.85C223.716 118.865 223.134 116.684 224.112 114.974L229.844 104.978C230.821 103.275 232.989 102.687 234.685 103.672L270.173 124.301C271.869 125.286 272.45 127.467 271.472 129.176L265.741 139.173C264.763 140.882 262.595 141.463 260.899 140.479Z" fill="#E4E4E4"/>
<path d="M157.501 59.4186L141.846 21.285C141.101 19.4662 141.956 17.3807 143.768 16.6285L154.362 12.2183C156.167 11.4661 158.239 12.3345 158.992 14.1533L174.646 52.2869C175.392 54.1057 174.537 56.1912 172.724 56.9433L162.131 61.3536C160.319 62.1057 158.246 61.2442 157.501 59.4186Z" fill="#E4E4E4"/>
<path d="M208.39 55.398L192.735 17.2645C191.99 15.4457 192.845 13.3602 194.657 12.608L205.251 8.19774C207.056 7.4456 209.128 8.31398 209.881 10.1328L225.535 48.2664C226.28 50.0852 225.426 52.1707 223.613 52.9228L213.02 57.3331C211.214 58.0852 209.142 57.2168 208.39 55.398Z" fill="#E4E4E4"/>
<path d="M5.45687 519.941L-18.206 486.252C-19.3344 484.645 -18.9582 482.416 -17.3579 481.281L-7.99538 474.614C-6.39506 473.479 -4.18608 473.862 -3.05765 475.469L20.6052 509.158C21.7336 510.765 21.3575 512.994 19.7572 514.129L10.3946 520.796C8.80113 521.931 6.59214 521.548 5.45687 519.941Z" fill="#E4E4E4"/>
<path d="M64.6208 470.313L49.1784 433.684C48.2552 431.496 49.2673 428.973 51.4421 428.043L67.6642 421.11C69.8389 420.18 72.342 421.199 73.2653 423.387L88.7077 460.016C89.6309 462.204 88.6188 464.727 86.444 465.657L70.2219 472.59C68.054 473.52 65.5441 472.501 64.6208 470.313Z" fill="#E4E4E4"/>
<path d="M125.392 152.718L102.577 120.233C101.216 118.291 101.674 115.61 103.596 114.236L117.985 103.993C119.914 102.619 122.581 103.084 123.942 105.019L146.757 137.505C148.118 139.446 147.66 142.127 145.738 143.501L131.349 153.744C129.42 155.118 126.753 154.66 125.392 152.718Z" fill="#E4E4E4"/>
<path d="M49.4725 703.587L34.0301 666.957C33.1069 664.769 34.119 662.246 36.2938 661.316L52.5158 654.383C54.6906 653.453 57.1937 654.472 58.117 656.66L73.5594 693.289C74.4826 695.477 73.4704 698 71.2956 698.93L55.0736 705.864C52.9057 706.794 50.3958 705.775 49.4725 703.587Z" fill="#E4E4E4"/>
<path d="M414.222 390.094L355.817 415.058C353.561 416.022 350.955 414.963 349.991 412.693L346.216 403.735C345.258 401.458 346.311 398.839 348.568 397.869L406.973 372.904C409.23 371.94 411.835 373 412.8 375.27L416.575 384.227C417.532 386.504 416.479 389.13 414.222 390.094Z" fill="#E4E4E4"/>
<path d="M216.419 169.867L164.613 206.749C162.61 208.179 159.84 207.7 158.424 205.683L152.844 197.737C151.428 195.72 151.9 192.931 153.904 191.501L205.709 154.619C207.713 153.19 210.482 153.669 211.898 155.686L217.479 163.631C218.901 165.648 218.422 168.438 216.419 169.867Z" fill="#E4E4E4"/>
<path d="M322.402 756.914L309.251 703.559C308.71 701.378 310.03 699.17 312.198 698.629L322.354 696.093C324.522 695.552 326.717 696.879 327.251 699.06L340.402 752.414C340.942 754.596 339.623 756.804 337.455 757.344L327.299 759.881C325.131 760.428 322.942 759.095 322.402 756.914Z" fill="#E4E4E4"/>
<path d="M111.988 158.947C111.988 158.947 134.098 165.511 138.824 182.53C143.549 199.556 123.976 212.753 119.558 218.36C115.14 223.967 65.5851 218.927 65.5851 218.927C65.5851 218.927 16.6797 195.884 15.818 182.53C14.9562 169.176 -24.1968 167.07 21.8636 150.913C67.9241 134.756 46.0462 126.325 67.9241 134.756C89.8088 143.187 111.988 158.947 111.988 158.947Z" fill="#006837"/>
<path d="M161.946 404.016C161.946 404.016 158.096 415.106 146.039 418.395C133.982 421.691 123.716 413 119.51 411.195C115.304 409.39 116.98 385.109 116.98 385.109C116.98 385.109 131.629 360.077 141.197 358.873C150.764 357.663 150.744 338.593 164.169 359.926C177.6 381.26 182.798 370.176 177.6 381.26C172.403 392.351 161.946 404.016 161.946 404.016Z" fill="#7DD0FF"/>
<path d="M-23.6976 273.396C13.4106 259.933 99.8688 241.526 119.777 254.914C139.685 268.295 216.049 267.495 216.049 267.495L285.957 224.937C285.957 224.937 390.867 251.139 389.896 196.985C388.925 142.824 420.815 57.5039 461.363 37.4286C501.911 17.3532 505.091 -6.36658 505.091 -6.36658H469.802C469.802 -6.36658 450.838 31.2884 433.173 34.6388C415.508 37.9824 363.915 85.2784 368.661 110.708C373.414 136.137 368.661 180.684 368.661 180.684L324.454 195.159L267.068 185.976C267.068 185.976 241.764 218.941 238.351 224.937C234.938 230.934 204.69 242.565 186.676 236.514C168.662 230.455 115.311 230.934 115.311 230.934C115.311 230.934 56.1473 254.934 45.6427 240.773C35.1312 226.619 5.83987 233.163 5.83987 233.163L-23.6976 240.773V273.396Z" fill="#7DD0FF"/>
<path d="M651.685 433.5V481.65C647.766 485.281 641.96 490.02 635.497 492.816C630.566 495.032 625.245 496.002 620.184 494.498C618.03 493.876 615.609 494.19 613.01 495.298C605.05 498.621 595.544 509.028 587.446 519.394C583.001 525.11 579 530.868 575.964 535.387C572.401 540.748 570.198 544.379 570.198 544.379C570.198 544.379 527.701 576.892 509.66 582.875C503.06 585.049 496.591 590.143 491.051 595.989C489.772 597.364 488.541 598.738 487.399 600.154C486.12 601.658 484.937 603.21 483.836 604.714C478.207 612.557 474.726 620.085 475.123 623.231C475.957 630.096 475.253 671.778 475.253 671.778L475 671.915L467.566 675.86L459.072 680.332L423.79 698.985L396.995 737.166C396.995 737.166 404.477 749.966 414.502 764.148C419.693 771.635 425.677 779.519 431.532 786.117H431.573C433.905 788.729 436.237 791.163 438.521 793.29C449.08 803.033 449.607 828.818 445.866 851.984H414.236C413.094 841.352 410.98 830.282 408.074 819.205C406.446 812.784 404.511 806.404 402.397 800.114C400.681 795.109 398.834 790.144 396.899 785.317C393.951 778.008 390.696 770.917 387.263 764.23C382.024 753.994 376.266 744.695 370.282 736.9C351.406 712.407 375.999 688.127 400.462 671.826C402.883 670.185 405.304 668.68 407.718 667.217C410.05 665.802 412.335 664.427 414.585 663.19C427.079 656.106 436.975 651.935 436.975 651.935L467.73 575.695C467.73 575.695 467.819 575.654 467.949 575.518C468.038 575.476 468.127 575.388 468.257 575.299C468.92 574.765 470.322 573.747 472.258 572.331C473.448 571.401 474.856 570.382 476.484 569.186C481.278 565.733 487.7 561.165 494.874 556.297C514.187 543.36 538.999 528.522 552.376 527.811C564.912 527.148 586.954 508.406 608.25 485.951C613.4 480.549 618.502 474.874 623.426 469.206C634.355 456.624 644.299 443.954 651.685 433.5Z" fill="#7DD0FF"/>
<path d="M202.18 840.114C201.831 843.745 201.209 847.246 200.422 850.658C200.292 851.102 200.203 851.547 200.073 851.984H40.0143C39.9732 851.984 39.9732 851.943 39.9732 851.943C37.6411 848.928 35.4869 845.96 33.5036 842.993C28.005 834.575 24.353 826.425 24.0863 819.423C22.8553 787.615 -33.6346 782.609 32.7992 744.113C34.5568 743.095 36.2323 742.076 37.86 741.098C41.1564 739.06 44.1929 737.112 47.0105 735.204C94.6166 702.643 70.2836 687.142 99.2808 705.611C107.686 710.923 116.084 717.529 123.963 724.257C126.643 726.602 129.283 728.995 131.841 731.341C149.657 747.731 162.856 763.238 162.856 763.238C162.856 763.238 194.753 778.828 201.571 819.41C202.795 826.603 202.884 833.509 202.18 840.114Z" fill="#006837"/>
<path d="M479.028 228.883C427.141 266.298 346.01 266.989 389.903 321.013C433.788 375.038 488.992 435.059 528.686 399.195C568.379 363.332 559.324 367.885 580.464 317.089C601.61 266.292 622.284 224.384 554.578 211.084C486.872 197.792 479.028 228.883 479.028 228.883Z" fill="#006837"/>
<path d="M336.483 553.377C303.465 570.506 251.831 570.82 279.761 595.552C307.691 620.284 342.823 647.757 368.079 631.34C393.336 614.923 387.577 617.008 401.03 593.754C414.482 570.499 427.647 551.312 384.561 545.227C341.476 539.148 336.483 553.377 336.483 553.377Z" fill="#006837"/>
<path d="M187.626 756.544C203.165 781.064 201.229 817.769 226.964 799.451C252.699 781.132 281.471 757.864 266.295 738.903C251.119 719.942 252.939 724.168 230.473 713.166C208.007 702.171 189.562 691.634 181.649 721.877C173.737 752.113 187.626 756.544 187.626 756.544Z" fill="#7DD0FF"/>
<path d="M651.678 524.645V571.135L623.761 516.379L618.919 506.861L558.422 388.248L548.792 369.39L507.082 287.598L502.267 278.141L453.703 182.907L448.861 173.416L411.172 99.4804L406.268 89.8735L359.661 -1.51856C358.861 -3.06387 358.478 -4.73226 358.512 -6.36646H380.903L426.272 82.6187L431.114 92.1094L491.701 210.927L496.543 220.418L567.764 360.084L577.393 378.942L651.678 524.645Z" fill="#F4F4F4"/>
<path d="M651.678 318.859V342.443L577.386 378.935L558.422 388.241L416.164 458.17L406.651 462.813L300.962 514.744L291.51 519.387L280.199 524.946L198.671 565.008L177.108 575.593L93.8369 616.516L81.3147 622.67L61.0509 632.605C60.8115 632.721 60.5516 632.844 60.2849 632.961L19.2853 653.125L9.77228 657.795L-19.0882 671.983C-20.5654 672.728 -22.1589 673.057 -23.6976 673.057V650.629L44.0081 617.378L63.5334 607.798L172.916 554.054C173.183 553.904 173.449 553.787 173.716 553.671L260.297 511.141L279.323 501.773L326.553 478.573L336.005 473.931L475.219 405.554L484.67 400.884L548.799 369.39L567.764 360.077L651.678 318.859Z" fill="#F4F4F4"/>
<path d="M310.981 851.984H289.91C292.331 791.56 283.488 742.746 269.715 703.853C268.046 699.067 266.281 694.465 264.435 690.034C235.616 619.244 191.183 585.049 177.101 575.613C174.42 573.794 172.834 572.865 172.656 572.776C167.595 569.986 165.708 563.517 168.518 558.423C169.708 556.208 171.596 554.615 173.709 553.685C176.527 552.488 179.871 552.577 182.819 554.17C183.434 554.526 189.507 557.938 198.658 565.022C213.97 576.851 237.989 598.957 259.99 634.26C260.475 635.06 260.961 635.853 261.487 636.653C264.565 641.747 267.69 647.238 270.768 653.091C286.299 682.547 300.688 721.706 307.37 771.724C308.293 778.548 309.087 785.591 309.702 792.852C311.248 811.232 311.822 830.897 310.981 851.984Z" fill="#F4F4F4"/>
<path d="M280.787 708.154C280.096 708.154 279.392 708.017 278.715 707.73L72.7113 618.943C70.0372 617.788 68.7994 614.677 69.9415 611.976C71.0836 609.289 74.1748 608.037 76.8557 609.186L282.859 697.973C285.533 699.128 286.771 702.24 285.629 704.941C284.781 706.951 282.832 708.154 280.787 708.154Z" fill="#F4F4F4"/>
<path d="M181.943 665.665L181.724 665.932L131.834 731.361L75.2143 805.693L68.2591 814.822L39.9662 851.943L39.9252 851.984H26.6371L33.5034 842.993L60.3395 807.772L68.0402 797.625L123.962 724.271L171.739 661.631L173.586 659.238C175.344 656.892 178.647 656.448 180.931 658.219C183.263 660.045 183.701 663.361 181.943 665.665Z" fill="#F4F4F4"/>
<path d="M372.573 667.751C370.685 667.751 368.859 666.725 367.908 664.927L286.668 510.163C285.307 507.579 286.292 504.365 288.864 502.997C291.435 501.623 294.622 502.615 295.983 505.206L377.223 659.969C378.584 662.554 377.599 665.768 375.028 667.135C374.241 667.552 373.4 667.751 372.573 667.751Z" fill="#F4F4F4"/>
<path d="M651.678 697.474V708.154C651.411 708.154 651.206 708.154 650.939 708.093L583.206 698.308V698.281L572.722 696.763L493.705 685.344L483.22 683.826L371.861 667.703L270.782 653.098V653.07L253.623 650.602C251.557 650.308 249.841 648.756 249.28 646.704C248.746 644.626 249.485 642.451 251.167 641.145L259.996 634.273L325.22 583.593L328.735 580.858C331.04 579.073 334.35 579.518 336.121 581.842C336.299 582.082 336.477 582.348 336.593 582.615C337.776 584.844 337.243 587.668 335.177 589.275L330.212 593.138L267.471 641.884L363.06 655.716L375.999 657.59L484.704 673.323L495.223 674.841L574.24 686.26L584.697 687.778L651.678 697.474Z" fill="#F4F4F4"/>
<path d="M635.675 6.15328L563.079 36.6355L553.265 40.7518L431.094 92.0957L420.972 96.3487C420.842 96.3897 420.705 96.4376 420.576 96.4786C420.049 96.6974 417.101 97.6274 412.437 99.0906C412.04 99.2205 411.603 99.3573 411.158 99.4872C401.522 102.455 385.731 107.015 368.661 110.694C354.45 113.792 339.363 116.321 326.294 116.766C324.844 116.807 323.435 116.855 322.026 116.855C319.037 116.855 316.131 116.725 313.45 116.458C312.787 116.369 312.089 116.239 311.473 116.151C295.545 113.053 282.257 92.3624 272.095 68.8409C270.686 65.5178 269.325 62.1536 268.005 58.7416C257.008 30.256 250.538 0.758379 249.218 -5.27243C249.129 -5.62799 249.088 -6.02457 249.088 -6.38013H259.778C264.045 13.4696 271.26 38.7142 280.014 60.2459C280.192 60.5536 280.322 60.8682 280.411 61.2237C290.485 85.4085 302.453 104.677 314.51 105.874C329.207 107.378 350.278 103.966 369.55 99.6308C383.98 96.3555 397.357 92.5401 406.289 89.8871C412.273 88.0683 416.233 86.7897 417.115 86.4752L418.962 85.723L426.266 82.6256L548.252 31.3637L558.018 27.2474L625.245 -1.01257C629.027 0.888294 632.549 3.3225 635.675 6.15328Z" fill="#F4F4F4"/>
<path d="M336.018 491.038C334.11 491.038 332.264 489.992 331.334 488.16C271.274 370.586 270.405 290.996 328.694 244.821C343.733 232.91 351.803 218.435 352.685 201.799C354.935 159.344 310.762 115.405 310.311 114.961C308.232 112.916 308.191 109.559 310.222 107.46C312.253 105.368 315.59 105.32 317.669 107.364C319.632 109.292 365.699 155.05 363.21 202.325C362.17 222.155 352.746 239.256 335.211 253.15C281.519 295.68 283.317 370.962 340.703 483.298C342.037 485.903 341.018 489.096 338.426 490.443C337.646 490.847 336.825 491.038 336.018 491.038Z" fill="#F4F4F4"/>
<path d="M294.123 378.162C292.071 378.162 290.122 376.952 289.274 374.935C288.139 372.234 289.384 369.123 292.065 367.981L512.355 273.827C515.035 272.678 518.127 273.943 519.262 276.637C520.397 279.338 519.152 282.449 516.472 283.591L296.182 377.745C295.511 378.033 294.814 378.162 294.123 378.162Z" fill="#F4F4F4"/>
<path d="M463.073 178.893L453.71 182.907L358.416 223.652L356.405 224.514C355.728 224.78 355.044 224.931 354.34 224.931C353.396 224.931 352.452 224.664 351.591 224.158L347.693 221.779L254.703 164.882L245.012 158.968L134.303 91.2136L132.621 90.2017C131.561 89.5794 130.76 88.5675 130.377 87.3777L128.367 81.429L99.1849 -4.64337C98.9798 -5.21089 98.8909 -5.80577 98.8909 -6.36646H109.703L138.885 79.7332L139.713 82.1401L150.32 88.6222L257.22 154.024L351.269 211.543L354.757 213.683L362.26 210.469L448.868 173.409L458.969 169.094C461.63 167.966 464.728 169.211 465.884 171.918C467.005 174.612 465.76 177.737 463.073 178.893Z" fill="#F4F4F4"/>
<path d="M343.562 357.485C342.468 354.073 341.107 350.798 339.376 347.742C331.067 332.548 315.488 322.005 297.351 320.849H297.296C296.25 320.808 295.204 320.76 294.109 320.76C293.275 320.76 292.434 320.76 291.599 320.849C289.924 320.897 288.2 321.068 286.58 321.335H286.532C266.247 324.343 249.834 339.188 244.349 358.675V358.716C243.043 363.188 242.414 367.974 242.414 372.85C242.414 376.391 242.728 379.892 243.405 383.215C248.213 406.963 269.127 424.946 294.109 424.946C297.139 424.946 300.223 424.679 303.103 424.146C304.826 423.838 306.502 423.482 308.122 422.997C309.901 422.511 311.624 421.937 313.245 421.226H313.299C332.326 413.52 345.867 394.737 345.867 372.85C345.867 367.496 345.08 362.361 343.562 357.485ZM309.846 411.222H309.791C308.116 411.934 306.392 412.508 304.669 412.952H304.614C302.938 413.397 301.318 413.752 299.594 413.971C297.761 414.238 295.983 414.368 294.103 414.368C271.363 414.368 252.911 395.763 252.911 372.863C252.911 352.843 266.924 336.227 285.691 332.241H285.745C287.421 331.885 289.042 331.666 290.765 331.53C291.866 331.441 292.96 331.4 294.109 331.4C294.896 331.4 295.621 331.4 296.359 331.441H296.414C310.578 332.241 322.867 340.255 329.658 351.906C331.436 354.921 332.845 358.196 333.789 361.65V361.697C334.781 365.239 335.307 369.007 335.307 372.863C335.307 390.135 324.748 404.973 309.846 411.222Z" fill="#F4F4F4"/>
<path d="M626.127 846.979C619.836 850.213 612.75 851.984 605.228 851.984H602.896C577.468 824.169 541.037 804.941 493.698 794.445C490.265 793.693 486.749 792.982 483.138 792.271C474.781 790.719 466.157 789.392 457.178 788.326C448.554 787.307 439.978 786.555 431.573 786.11H431.531C425.595 785.755 419.741 785.488 413.976 785.399C410.413 785.31 406.85 785.269 403.375 785.269C401.173 785.269 399.019 785.269 396.906 785.31C357.616 785.707 324.885 790.356 309.709 792.838C303.992 793.816 300.736 794.432 300.599 794.48C294.923 795.676 289.336 791.997 288.146 786.24C286.956 780.524 290.608 774.896 296.332 773.707C296.995 773.577 300.866 772.777 307.377 771.717C322.47 769.194 351.639 765.119 387.277 764.23C395.989 763.963 405.14 763.922 414.509 764.141C429.028 764.496 444.204 765.426 459.605 767.238C535.101 776.189 591.324 803.348 626.127 846.979Z" fill="#F4F4F4"/>
<path d="M202.18 840.114L245.867 851.984H205.394L200.422 850.658L68.2592 814.822L64.8739 813.892C63.1573 813.406 61.7964 812.121 61.2629 810.48L60.3397 807.779L37.8532 741.105L9.74499 657.781L6.14086 647.06C5.2176 644.27 6.66746 641.255 9.43724 640.325C12.166 639.347 15.1546 640.858 16.1258 643.648L19.3401 653.125L47.0105 735.211L68.0404 797.625L70.3314 804.36L75.2144 805.687L202.18 840.114Z" fill="#F4F4F4"/>
<path d="M408.081 819.205C405.619 825.406 402.185 831.738 397.432 837.899C393.384 843.123 388.678 847.868 383.351 851.984C383.262 852.121 383.173 852.162 383.084 852.203L381.805 851.984H363.942C364.646 851.588 365.351 851.232 366.055 850.836C366.363 850.658 366.671 850.48 366.978 850.261C367.067 850.261 367.156 850.22 367.197 850.172C376.04 845.126 383.303 838.876 389.02 831.478C397.118 821.064 400.811 809.775 402.397 800.114C403.28 794.445 403.499 789.303 403.369 785.276C403.239 779.519 402.534 775.881 402.534 775.751C401.919 772.914 403.765 770.083 406.583 769.508C409.442 768.886 412.211 770.705 412.834 773.584C412.964 774.069 413.846 778.548 413.976 785.413C414.195 793.953 413.23 806.268 408.081 819.205Z" fill="#F4F4F4"/>
<path d="M276.273 68.1366L272.108 68.8203L150.32 88.629L134.337 91.2136H134.31L68.1429 101.983L56.6192 103.856L1.44241 112.841L-9.04173 114.537L-22.8633 116.8C-23.1574 116.827 -23.3967 116.862 -23.6908 116.862V106.154L-5.82057 103.268L128.374 81.4358L138.892 79.7401L268.005 58.7416L274.591 57.6681C277.456 57.2237 280.171 59.1861 280.616 62.0716C281.088 64.9571 279.139 67.6579 276.273 68.1366Z" fill="#F4F4F4"/>
<path d="M56.2567 633.774C51.784 633.774 47.6396 630.889 46.2171 626.362C45.841 625.159 9.65599 505.438 121.877 459.318C234.09 413.212 284.323 509.712 284.815 510.69C287.448 515.914 285.376 522.293 280.192 524.946C275.001 527.599 268.661 525.514 266.028 520.29C264.36 517.035 223.811 440.33 129.837 478.956C90.2464 495.23 67.5273 523.722 62.3024 563.641C58.3221 594.089 66.2211 619.702 66.3032 619.955C68.0608 625.535 64.9832 631.497 59.4437 633.268C58.3836 633.617 57.3099 633.774 56.2567 633.774Z" fill="#F4F4F4"/>
<path d="M135.363 470.847C133.838 470.847 132.327 470.183 131.287 468.905C129.441 466.642 129.769 463.298 132.019 461.438L240.553 371.851L54.7317 101.101C53.0767 98.6872 53.6785 95.3846 56.0722 93.7231C58.4658 92.0615 61.7485 92.6632 63.3967 95.0701L251.981 369.848C253.541 372.118 253.11 375.215 250.99 376.966L138.701 469.643C137.723 470.45 136.539 470.847 135.363 470.847Z" fill="#F4F4F4"/>
<path d="M153.363 240.774C151.77 240.774 150.197 240.049 149.157 238.668C147.4 236.329 147.858 233.006 150.176 231.235L251.195 154.25C253.513 152.486 256.816 152.944 258.574 155.276C260.332 157.614 259.873 160.937 257.555 162.708L156.537 239.7C155.586 240.425 154.464 240.774 153.363 240.774Z" fill="#F4F4F4"/>
<path d="M54.4924 167.036C42.6541 167.036 32.0469 164.377 22.7459 159.064C-4.64419 143.412 -9.99227 110.701 -10.2043 109.313C-10.6556 106.421 -8.68602 103.706 -5.81366 103.255C-2.94129 102.803 -0.253575 104.78 0.197797 107.672C0.252508 108 5.08082 136.828 28.0187 149.881C44.6784 159.358 66.9872 158.53 94.3294 147.419C97.0307 146.318 100.095 147.631 101.182 150.352C102.269 153.067 100.97 156.164 98.2686 157.259C82.2381 163.775 67.6095 167.036 54.4924 167.036Z" fill="#F4F4F4"/>
<path d="M120.598 191.146L117.11 191.98L66.9255 203.754L56.6192 206.195L30.2687 212.384L19.9281 214.79L-22.5145 224.787C-22.9248 224.903 -23.2805 224.937 -23.6976 224.937V214.168L22.2671 203.372C22.3833 203.344 22.4722 203.344 22.5611 203.31L110.674 182.612L118.204 180.828C120.42 180.294 122.636 181.272 123.819 183.118C124.147 183.624 124.38 184.192 124.53 184.787C125.18 187.638 123.436 190.496 120.598 191.146Z" fill="#F4F4F4"/>
<path d="M159.512 337.472C148.986 337.472 140.52 323.824 132.292 310.559C125.296 299.283 116.583 285.266 110.257 286.941C87.1279 293.123 62.9316 225.382 56.0653 204.479C55.1557 201.696 56.6534 198.701 59.4095 197.778C62.1656 196.869 65.1474 198.373 66.0638 201.149C79.9948 243.577 99.397 278.825 107.556 276.692C121.405 272.999 131.479 289.239 141.224 304.938C147.454 314.983 155.996 328.754 160.852 326.504C178.51 318.381 200.908 304.685 201.133 304.541C203.616 303.023 206.858 303.817 208.369 306.312C209.88 308.815 209.094 312.077 206.611 313.601C205.675 314.176 183.462 327.762 165.229 336.152C163.252 337.054 161.351 337.472 159.512 337.472Z" fill="#F4F4F4"/>
<path d="M57.1527 547.011L43.6252 549.363L-22.8086 560.871C-23.1026 560.933 -23.3967 560.96 -23.6976 560.96V550.28L46.5454 538.088L55.3745 536.543C58.2127 536.064 60.9551 537.999 61.4612 540.885C61.9331 543.77 60.0182 546.505 57.1527 547.011Z" fill="#F4F4F4"/>
<path d="M73.5183 516.283C72.5745 516.939 71.5418 517.261 70.475 517.261C68.8199 517.261 67.1991 516.488 66.1596 515.004L60.8115 507.421L7.08456 430.867C6.87939 430.628 6.70158 430.388 6.55113 430.122L-23.6976 387.058V372.542C-22.0426 372.542 -20.4491 373.342 -19.4164 374.805L9.14993 415.462L16.7685 426.32L67.3974 498.416L74.7493 508.912C76.4385 511.291 75.8777 514.587 73.5183 516.283Z" fill="#F4F4F4"/>
<path d="M114.511 479.661C112.323 479.661 110.285 478.286 109.532 476.091L18.3962 210.291C17.4456 207.522 18.9091 204.5 21.6584 203.549C24.4145 202.592 27.41 204.062 28.3538 206.831L119.49 472.625C120.44 475.394 118.977 478.416 116.228 479.367C115.66 479.565 115.079 479.661 114.511 479.661Z" fill="#F4F4F4"/>
<path d="M11.1196 432.741C10.8392 432.741 10.5588 432.72 10.2784 432.672C7.41284 432.207 5.4569 429.506 5.90827 426.614C6.07241 425.588 10.0937 401.301 30.7816 387.653C45.1776 378.156 63.7386 376.289 85.9584 382.101C88.776 382.833 90.4653 385.732 89.7335 388.569C89.0017 391.407 86.1225 393.11 83.3117 392.371C64.1421 387.366 48.433 388.74 36.6426 396.474C19.8598 407.475 16.3445 428.084 16.3103 428.289C15.8932 430.888 13.6568 432.741 11.1196 432.741Z" fill="#F4F4F4"/>
<path d="M55.5523 303.571L50.7993 304.849L-22.3367 324.514C-22.8086 324.631 -23.2257 324.692 -23.6976 324.692V313.923L47.3729 294.798L52.8373 293.314C55.3745 292.658 57.946 293.936 58.9787 296.227C59.0949 296.494 59.1838 296.795 59.2727 297.089C60.0455 299.912 58.3631 302.832 55.5523 303.571Z" fill="#F4F4F4"/>
</g>
</g>
<defs>
<clipPath id="clip0_253_494">
<rect width="390" height="844" fill="white"/>
</clipPath>
<clipPath id="clip1_253_494">
<rect width="675.382" height="858.583" fill="white" transform="translate(-23.6976 -6.38013)"/>
</clipPath>
</defs>
</svg>
