<svg width="36" height="39" viewBox="0 0 36 39" fill="none" xmlns="http://www.w3.org/2000/svg">
<path d="M36 31.8462C36 31.0815 35.38 30.4615 34.6153 30.4615H30.4615V26.3077C30.4615 25.543 29.8416 24.9231 29.0769 24.9231V24.9231C28.3122 24.9231 27.6923 25.543 27.6923 26.3077V30.4615H23.5384C22.7737 30.4615 22.1538 31.0815 22.1538 31.8462V31.8462C22.1538 32.6109 22.7737 33.2308 23.5384 33.2308H27.6923V37.3846C27.6923 38.1493 28.3122 38.7692 29.0769 38.7692V38.7692C29.8416 38.7692 30.4615 38.1493 30.4615 37.3846V33.2308H34.6153C35.3801 33.2308 36 32.6109 36 31.8462V31.8462Z" fill="#5AB522"/>
<path d="M18 38C18 38.5523 17.5523 39 17 39H2.5C0 39 0 36.9692 0 36V10.9385C0 9.96923 0.553846 9 1.38462 8.58461L15.2308 0.415385C15.6462 0.138461 16.0615 0 16.6154 0C17.1692 0 17.5846 0.138461 18 0.415385L31.8462 8.58461C32.6769 9.13846 33.2308 9.96923 33.2308 10.9385V18.3846C33.2308 18.9369 32.7831 19.3846 32.2308 19.3846H27.4615C26.9093 19.3846 26.4615 18.9369 26.4615 18.3846V11.9385L16.6154 6.76923L6.76923 11.9385V33H17C17.5523 33 18 33.4477 18 34V38Z" fill="#5AB522"/>
</svg>
