<svg width="349" height="51" viewBox="0 0 349 51" fill="none" xmlns="http://www.w3.org/2000/svg">
<rect x="0.0517578" y="0.37146" width="348.173" height="50.1296" rx="25.0648" fill="white"/>
<path d="M314.643 25.892C314.643 24.0036 316.173 22.4741 318.061 22.4741C319.948 22.4741 321.478 24.0036 321.478 25.892C321.478 27.7804 319.948 29.3099 318.061 29.3099C316.173 29.3099 314.643 27.7804 314.643 25.892ZM318.061 14.9547C318.817 14.9547 319.427 15.5669 319.427 16.3218V17.8022C322.862 18.3786 325.574 21.0898 326.146 24.5248H327.628C328.384 24.5248 328.995 25.1358 328.995 25.892C328.995 26.6482 328.384 27.2592 327.628 27.2592H326.146C325.574 30.6942 322.862 33.4072 319.427 33.9797V35.4622C319.427 36.2184 318.817 36.8294 318.061 36.8294C317.305 36.8294 316.694 36.2184 316.694 35.4622V33.9797C313.26 33.4072 310.549 30.6942 309.973 27.2592H308.493C307.738 27.2592 307.126 26.6482 307.126 25.892C307.126 25.1358 307.738 24.5248 308.493 24.5248H309.973C310.549 21.0898 313.26 18.3786 316.694 17.8022V16.3218C316.694 15.5669 317.305 14.9547 318.061 14.9547ZM312.593 25.892C312.593 28.9126 315.041 31.3607 318.061 31.3607C321.08 31.3607 323.528 28.9126 323.528 25.892C323.528 22.8714 321.08 20.4233 318.061 20.4233C315.041 20.4233 312.593 22.8714 312.593 25.892Z" fill="#333333" fill-opacity="0.5"/>
</svg>
